<svg xmlns="http://www.w3.org/2000/svg" viewBox="0 0 112.52 213.43"><defs><style>.cls-1{fill:#e5ecf4;}</style></defs><title>bg-left</title><g id="Capa_2" data-name="Capa 2"><g id="Capa_1-2" data-name="Capa 1"><path class="cls-1" d="M112.52,0V213A84.49,84.49,0,0,1,83,211c-9-2.33-17.46-6.36-26.24-9.42a11,11,0,0,0-6.15-.43c-12.44,3.43-24.81,7.13-37.2,10.74-.9.26-1.82.43-2.7.75-3.41,1.23-7,1-8.82-2-1.45-2.52-2.43-6.49-1.47-9,2.9-7.52,6.84-14.63,10.38-21.9a5,5,0,0,1,.52-.78c4.41-5.79,5.5-10.82.15-17.49C3.83,152,2,139.92,1.07,128c-1.7-21-1.27-42,7.13-61.62C22.83,32.22,48.31,10.23,85,2.36,93.79.46,103.11.74,112.52,0Zm-94,195.35c2.1-.55,3.22-.82,4.31-1.14,8.67-2.51,17.33-5.06,26-7.53,5.34-1.52,10.3-1.11,15.14,2.16a53.82,53.82,0,0,0,10.88,5.33,65.72,65.72,0,0,0,23.7,4.65V155.75c-2-.09-3.64-.23-5.32-.23-8.58,0-17.17.09-25.75-.05-5.26-.08-7.95-2.69-8-7.18s3-7.53,8.14-7.63c5.77-.12,11.55,0,17.32,0H98.59V128.26c-2,0-3.87,0-5.69,0q-22.47-.06-44.95-.12c-4,0-6.1-2.28-6.72-5.86A7,7,0,0,1,45.81,114a15.24,15.24,0,0,1,5.47-.83c14-.06,28.1,0,42.15,0,1.66,0,3.31-.14,5.17-.22V100.65c-2-.09-3.88-.25-5.72-.25-14.2,0-28.4.06-42.6,0-5.73,0-9.22-3-9.25-7.74S44.59,85,50.26,85C64.62,85,79,85,93.34,85h5.24V73.38c-1.75-.1-3.41-.29-5.08-.29-8.74,0-17.49.09-26.22-.06-5-.08-7.93-3.31-7.76-8,.15-4.43,3.1-7.18,8-7.22,8.9-.06,17.8,0,26.69,0,1.48,0,3-.14,4.29-.21V14.76A87,87,0,0,0,55.42,29.67C37.22,42.05,24.63,58.86,18.31,80.25c-4.7,15.9-4.33,32-3.11,48.23.81,10.67,3.65,20.77,10.65,29.36,6.64,8.16,6.72,11.32,1.65,20.61C24.6,183.75,21.81,189.13,18.5,195.35Z"/></g></g></svg>