<svg xmlns="http://www.w3.org/2000/svg" viewBox="0 0 112.24 212.26"><defs><style>.cls-1{fill:#e5ecf4;}</style></defs><title>bg-right</title><g id="Capa_2" data-name="Capa 2"><g id="Capa_1-2" data-name="Capa 1"><path class="cls-1" d="M0,.13C18.06-.62,35.23,1.75,51.41,9.82c22.9,11.43,40,28.71,50.55,51.87,8.1,17.73,10.17,36.72,9.26,56.17-.61,13-1.69,25.8-7.78,37.61-1.49,2.89-2.91,5.95-5,8.34-2.91,3.29-2.58,6-.57,9.58,4.34,7.73,8.29,15.69,12.29,23.61a22.58,22.58,0,0,1,1.91,5.71c1.21,5.94-3.41,10.64-9.29,9.08-8.27-2.19-16.38-4.94-24.58-7.39-2.83-.85-5.89-1.15-8.53-2.38-8.53-3.94-16-1.2-23.8,2.51C31.43,211.41,16,212.44,0,212.23ZM93.59,194.72c-1.06-2.13-1.84-3.6-2.56-5.11-3.12-6.61-6.64-13.07-9.11-19.91a10.31,10.31,0,0,1,1.56-8.54c8.82-10.45,12.89-22.43,14-35.9,1.77-20.87.36-41.3-9.09-60.26-10.28-20.64-26-36-47.67-44.68-8.66-3.48-17.5-6.13-27-6.46V84.35c14.79,0,29.13,0,43.48,0C62.87,84.37,66,87,66,91.68c0,5.09-2.86,7.56-9,7.55q-19,0-37.92,0c-1.81,0-3.62,0-5.49,0v13.37c14.88,0,29.38,0,43.87,0,5.61,0,9.35,3.13,9.34,7.63s-3.07,7-9,7c-13.11,0-26.23.15-39.33-.08-4-.07-5.4.78-5.35,5.1.23,20.6.09,41.2.11,61.8,0,1.36.19,2.71.31,4.28a36.6,36.6,0,0,0,3.95,0C28.64,197,39.29,194.13,48.75,188c4.63-3,9.32-3.22,14.3-1.86C72.92,188.84,82.76,191.67,93.59,194.72Z"/></g></g></svg>