<svg xmlns="http://www.w3.org/2000/svg" xmlns:xlink="http://www.w3.org/1999/xlink" viewBox="0 0 451.72 203.06"><defs><linearGradient id="ff909bb9-f074-40dd-b3e5-d214aee5c66b" x1="221.5" y1="127.5" x2="221.5" y2="1.5" gradientUnits="userSpaceOnUse"><stop offset="0" stop-color="#004996"/><stop offset="1" stop-color="#009fe3"/></linearGradient></defs><g id="fa3fa0d5-5d20-46da-9038-b08be836246e" data-name="Capa 2"><g id="aff5b2ce-ac79-4345-b48b-7113bb3cdcf4" data-name="Capa 1"><g style="opacity:0.30000000000000004"><rect x="10.22" y="8.61" width="440" height="126" rx="20"/><rect x="10.22" y="8.61" width="440" height="126" rx="20" style="fill:none;stroke:#000;stroke-miterlimit:10;stroke-width:3px"/></g><rect x="1.5" y="1.5" width="440" height="126" rx="20" style="fill:url(#ff909bb9-f074-40dd-b3e5-d214aee5c66b)"/><rect x="1.5" y="1.5" width="440" height="126" rx="20" style="fill:none;stroke:#004996;stroke-miterlimit:10;stroke-width:3px"/><g style="opacity:0.30000000000000004"><path d="M419.43,123.1c-.24-6.89-10.7-8.91-13.79-3.45-.71-6.41-11.16-8.55-13.72-2.2V84.64c0-5.63-3.29-10.19-8.91-10.19s-8.27,4.56-8.27,10.19v55l-10.12-10c-4-4-9.65-5.1-13.62-1.12s-2.89,9.14,1.08,13.12l29.72,29.71a1.86,1.86,0,0,0,.31.26,28.69,28.69,0,0,0,21.36,9.52h0a28.74,28.74,0,0,0,28.74-28.74V130C432.21,124.29,425.13,119.06,419.43,123.1Z" style="stroke:#000;stroke-miterlimit:10;stroke-width:3px"/><rect x="364.62" y="178.29" width="73.42" height="23.27" rx="3.76" style="stroke:#000;stroke-miterlimit:10;stroke-width:3px"/></g><path d="M397.09,175.85A30.3,30.3,0,0,1,374.73,166a3.87,3.87,0,0,1-.37-.32l-29.72-29.72c-5-5-5.38-10.94-1.08-15.24a9.56,9.56,0,0,1,6.87-2.92,12.89,12.89,0,0,1,8.87,4l7.55,7.43V77.84c0-7.1,3.84-11.69,9.78-11.69C382.76,66.15,387,71,387,77.84v28.74a8.37,8.37,0,0,1,4.54-1.25,9.53,9.53,0,0,1,8.31,4.58,8.81,8.81,0,0,1,5.34-1.69c3.7,0,7.67,2,8.92,5.78a8.86,8.86,0,0,1,3.25-.63,10.25,10.25,0,0,1,9.93,9.81v22.43A30.27,30.27,0,0,1,397.09,175.85Z" style="fill:#fff"/><path d="M376.63,67.65c5.62,0,8.91,4.56,8.91,10.19v32.81a6.2,6.2,0,0,1,6-3.82c3.54,0,7.27,2.29,7.68,6a6.62,6.62,0,0,1,6-3.14c3.75,0,7.67,2.39,7.82,6.58a7.41,7.41,0,0,1,4.35-1.43,8.75,8.75,0,0,1,8.43,8.31v22.43a28.73,28.73,0,0,1-50.1,19.22,1.92,1.92,0,0,1-.32-.26L345.7,134.86c-4-4-5.06-9.15-1.08-13.12a8.07,8.07,0,0,1,5.81-2.48,11.36,11.36,0,0,1,7.81,3.6l10.11,10v-55c0-5.63,2.66-10.19,8.28-10.19m0-3c-6.85,0-11.28,5.18-11.28,13.19v47.81l-5-4.93a14.23,14.23,0,0,0-9.92-4.46,11,11,0,0,0-7.93,3.36c-4.87,4.87-4.44,11.84,1.08,17.36l29.71,29.72.42.37a31.74,31.74,0,0,0,55.12-21.46V123.18a11.66,11.66,0,0,0-11.43-11.31,10.17,10.17,0,0,0-2.4.29c-1.87-3.56-5.94-5.44-9.77-5.44a10.57,10.57,0,0,0-4.9,1.15,11.37,11.37,0,0,0-8.75-4,10.74,10.74,0,0,0-3,.43V77.84c0-7.64-5-13.19-11.91-13.19Z" style="fill:#004996"/><rect x="356.74" y="170" width="76.42" height="26.27" rx="5.26" style="fill:#fff"/><path d="M427.89,171.5a3.76,3.76,0,0,1,3.77,3.76V191a3.76,3.76,0,0,1-3.77,3.76H362a3.76,3.76,0,0,1-3.77-3.76V175.26A3.76,3.76,0,0,1,362,171.5h65.88m0-3H362a6.77,6.77,0,0,0-6.77,6.76V191a6.77,6.77,0,0,0,6.77,6.76h65.88a6.77,6.77,0,0,0,6.77-6.76V175.26a6.77,6.77,0,0,0-6.77-6.76Z" style="fill:#004996"/><path d="M45.84,89.92a1.58,1.58,0,0,1-.47-1.15v-32a1.57,1.57,0,0,1,.47-1.19A1.66,1.66,0,0,1,47,55.1h5.36A1.52,1.52,0,0,1,54,56.73V59a11.9,11.9,0,0,1,9.84-4.62q7.55,0,10.52,6A12.19,12.19,0,0,1,79,56.08a13.13,13.13,0,0,1,6.45-1.66,11.85,11.85,0,0,1,9.09,3.8Q98.05,62,98,69.29V88.77a1.59,1.59,0,0,1-.44,1.15,1.52,1.52,0,0,1-1.18.48H90.78a1.64,1.64,0,0,1-1.63-1.63V69.83q0-4.27-1.8-6.18a6.22,6.22,0,0,0-4.72-1.9,6,6,0,0,0-4.51,1.94C76.88,65,76.25,67,76.25,69.83V88.77a1.59,1.59,0,0,1-.44,1.15,1.52,1.52,0,0,1-1.18.48H68.92a1.56,1.56,0,0,1-1.15-.48,1.55,1.55,0,0,1-.48-1.15V69.83c0-2.81-.61-4.85-1.83-6.14a6.16,6.16,0,0,0-4.68-1.94,6.06,6.06,0,0,0-4.52,1.94C55,65,54.4,67,54.4,69.83V88.77A1.6,1.6,0,0,1,54,89.92a1.52,1.52,0,0,1-1.18.48H47A1.57,1.57,0,0,1,45.84,89.92Z" style="fill:#fff"/><path d="M110.57,89.69A11.55,11.55,0,0,1,106,85.92a9.24,9.24,0,0,1,2.07-12.7,22.35,22.35,0,0,1,10.25-3.86l9.3-1.36V66.57a6,6,0,0,0-1.49-4.41q-1.5-1.48-4.75-1.49a7,7,0,0,0-3.6.81,11.55,11.55,0,0,0-2.21,1.66l-1.12,1.12a1,1,0,0,1-1,.82h-5.29a1.49,1.49,0,0,1-1-.41,1.37,1.37,0,0,1-.44-1.08,7.08,7.08,0,0,1,1.66-3.84A12.86,12.86,0,0,1,113.25,56a18.84,18.84,0,0,1,8.21-1.6q8,0,11.68,3.6a12.64,12.64,0,0,1,3.67,9.43V88.77a1.6,1.6,0,0,1-.45,1.15,1.52,1.52,0,0,1-1.18.48h-5.64a1.64,1.64,0,0,1-1.63-1.63V86.12a11.11,11.11,0,0,1-4.21,3.57,14.88,14.88,0,0,1-6.78,1.39A14.52,14.52,0,0,1,110.57,89.69Zm14.76-7.57q2.39-2.45,2.38-7.06V73.7l-6.79,1.09Q113.12,76,113.11,80a3.79,3.79,0,0,0,1.8,3.36,7.59,7.59,0,0,0,4.31,1.19A8.14,8.14,0,0,0,125.33,82.12Zm-8.62-33.2a1.18,1.18,0,0,1,.34-.88l5.57-6.72a4,4,0,0,1,1.12-1,3,3,0,0,1,1.39-.27H132a1.26,1.26,0,0,1,.95.37,1.45,1.45,0,0,1,.34,1,1.11,1.11,0,0,1-.34.81l-8.49,6.93a5.23,5.23,0,0,1-1.12.68,3.54,3.54,0,0,1-1.26.2H117.8A1,1,0,0,1,116.71,48.92Z" style="fill:#fff"/><path d="M150.31,89.52a13.57,13.57,0,0,1-5.12-3.64,6.1,6.1,0,0,1-1.66-3.56,1.41,1.41,0,0,1,.44-1.09,1.48,1.48,0,0,1,1.05-.4h5.56a1.19,1.19,0,0,1,1,.54l1.52,1.29a9.12,9.12,0,0,0,2.72,1.6,9.56,9.56,0,0,0,3.36.57,8.27,8.27,0,0,0,4.41-1,3.36,3.36,0,0,0,1.7-3,3.14,3.14,0,0,0-.78-2.21A7.16,7.16,0,0,0,161.68,77a55.11,55.11,0,0,0-6-1.59q-5.77-1.23-8.52-3.74A8.54,8.54,0,0,1,144.41,65,8.93,8.93,0,0,1,146,59.89,11.67,11.67,0,0,1,150.89,56a17.83,17.83,0,0,1,7.7-1.53,19.76,19.76,0,0,1,7.95,1.46,13.7,13.7,0,0,1,5.05,3.5A5.89,5.89,0,0,1,173.33,63a1.52,1.52,0,0,1-1.5,1.5h-5.09a1.33,1.33,0,0,1-1.15-.55c-.32-.22-.83-.64-1.53-1.25a8.6,8.6,0,0,0-2.34-1.46,8.09,8.09,0,0,0-3.13-.54,6.05,6.05,0,0,0-3.86,1.08,3.48,3.48,0,0,0-1.36,2.85,3.17,3.17,0,0,0,.64,2,6,6,0,0,0,2.62,1.53,42.1,42.1,0,0,0,5.9,1.46Q174.76,72,174.75,80.28a9.18,9.18,0,0,1-4.17,7.81q-4.19,3-11.65,3A21,21,0,0,1,150.31,89.52Z" style="fill:#fff"/><path d="M200.21,89.92a1.55,1.55,0,0,1-.48-1.15V62.36h-5.5a1.62,1.62,0,0,1-1.63-1.63v-4a1.55,1.55,0,0,1,.48-1.15,1.56,1.56,0,0,1,1.15-.48h5.5V52.38q0-6.16,3.33-9.19t10-3h4.69a1.62,1.62,0,0,1,1.63,1.62v4a1.64,1.64,0,0,1-1.63,1.63h-4.35a4.65,4.65,0,0,0-3.73,1.29,6.14,6.14,0,0,0-1.09,4V55.1h8.49a1.64,1.64,0,0,1,1.63,1.63v4a1.57,1.57,0,0,1-.48,1.16,1.54,1.54,0,0,1-1.15.47h-8.49V88.77a1.59,1.59,0,0,1-.44,1.15,1.53,1.53,0,0,1-1.19.48h-5.63A1.55,1.55,0,0,1,200.21,89.92Z" style="fill:#fff"/><path d="M227.53,89.69A11.62,11.62,0,0,1,223,85.92a9.24,9.24,0,0,1,2.07-12.7,22.35,22.35,0,0,1,10.25-3.86L244.6,68V66.57a6,6,0,0,0-1.49-4.41q-1.5-1.48-4.75-1.49a7,7,0,0,0-3.6.81,11.55,11.55,0,0,0-2.21,1.66l-1.12,1.12a1,1,0,0,1-1,.82h-5.29a1.49,1.49,0,0,1-1.05-.41,1.37,1.37,0,0,1-.44-1.08,7.16,7.16,0,0,1,1.66-3.84A12.86,12.86,0,0,1,230.21,56a18.84,18.84,0,0,1,8.21-1.6q8,0,11.68,3.6a12.64,12.64,0,0,1,3.67,9.43V88.77a1.6,1.6,0,0,1-.45,1.15,1.52,1.52,0,0,1-1.18.48H246.5a1.64,1.64,0,0,1-1.63-1.63V86.12a11.11,11.11,0,0,1-4.21,3.57,14.88,14.88,0,0,1-6.78,1.39A14.52,14.52,0,0,1,227.53,89.69Zm14.76-7.57q2.39-2.45,2.38-7.06V73.7l-6.79,1.09q-7.8,1.21-7.8,5.22a3.78,3.78,0,0,0,1.79,3.36,7.59,7.59,0,0,0,4.31,1.19A8.14,8.14,0,0,0,242.29,82.12Zm-8.62-33.2A1.22,1.22,0,0,1,234,48l5.57-6.72a4,4,0,0,1,1.12-1,3,3,0,0,1,1.39-.27H249a1.26,1.26,0,0,1,1,.37,1.45,1.45,0,0,1,.34,1,1.11,1.11,0,0,1-.34.81l-8.49,6.93a5.23,5.23,0,0,1-1.12.68A3.52,3.52,0,0,1,239,50h-4.28A1,1,0,0,1,233.67,48.92Z" style="fill:#fff"/><path d="M265.81,86.94q-4.44-4.14-4.71-11.48L261,72.75,261.1,70q.27-7.32,4.71-11.47t11.92-4.14a19.77,19.77,0,0,1,9.06,1.9,14,14,0,0,1,5.5,4.65,10.74,10.74,0,0,1,1.93,5.26,1.32,1.32,0,0,1-.44,1.16,1.7,1.7,0,0,1-1.19.47h-6a1.58,1.58,0,0,1-1.08-.3,3.14,3.14,0,0,1-.68-1.12,7.93,7.93,0,0,0-2.68-3.74,7.3,7.3,0,0,0-4.25-1.15,6.84,6.84,0,0,0-5.39,2.17q-1.94,2.18-2.07,6.65l-.07,2.52.07,2.24q.41,8.82,7.46,8.82a7.39,7.39,0,0,0,4.28-1.12,7.78,7.78,0,0,0,2.65-3.77,2.59,2.59,0,0,1,.64-1.08,1.6,1.6,0,0,1,1.12-.34h6a1.7,1.7,0,0,1,1.19.47,1.32,1.32,0,0,1,.44,1.16,10.74,10.74,0,0,1-1.9,5.12,14.18,14.18,0,0,1-5.43,4.72,19.22,19.22,0,0,1-9.16,2Q270.26,91.08,265.81,86.94Z" style="fill:#fff"/><path d="M301.49,48.85A1.55,1.55,0,0,1,301,47.7v-5a1.67,1.67,0,0,1,.48-1.23,1.58,1.58,0,0,1,1.15-.47h6.25a1.61,1.61,0,0,1,1.69,1.7v5a1.5,1.5,0,0,1-.51,1.15,1.66,1.66,0,0,1-1.18.48h-6.25A1.55,1.55,0,0,1,301.49,48.85Zm.27,41.07a1.55,1.55,0,0,1-.48-1.15v-32a1.54,1.54,0,0,1,.48-1.19,1.63,1.63,0,0,1,1.15-.44h5.77a1.62,1.62,0,0,1,1.63,1.63v32a1.62,1.62,0,0,1-1.63,1.63h-5.77A1.55,1.55,0,0,1,301.76,89.92Z" style="fill:#fff"/><path d="M319.81,89.92a1.58,1.58,0,0,1-.47-1.15V43.83a1.57,1.57,0,0,1,.47-1.19A1.68,1.68,0,0,1,321,42.2h5.7a1.52,1.52,0,0,1,1.63,1.63V88.77a1.63,1.63,0,0,1-.44,1.15,1.54,1.54,0,0,1-1.19.48H321A1.59,1.59,0,0,1,319.81,89.92Z" style="fill:#fff"/></g></g></svg>