<svg xmlns="http://www.w3.org/2000/svg" viewBox="0 0 218.67 44.46"><defs><style>.cls-1{fill:#fff;}</style></defs><title>easier-button</title><g id="Capa_2" data-name="Capa 2"><g id="Capa_1-2" data-name="Capa 1"><path class="cls-1" d="M23.44,0V44.36A17.69,17.69,0,0,1,17.28,44c-1.86-.49-3.64-1.32-5.46-2a2.28,2.28,0,0,0-1.29-.09c-2.59.71-5.16,1.48-7.75,2.24l-.56.15a1.41,1.41,0,0,1-1.83-.42A2.47,2.47,0,0,1,.08,42c.6-1.57,1.42-3,2.16-4.57l.11-.16a2.54,2.54,0,0,0,0-3.64c-1.58-2-2-4.48-2.16-7C-.13,22.3,0,17.93,1.71,13.83,4.76,6.71,10.06,2.13,17.7.49A42.7,42.7,0,0,1,23.44,0ZM3.85,40.7l.9-.24c1.81-.53,3.61-1.06,5.42-1.57a3.54,3.54,0,0,1,3.15.45,11.36,11.36,0,0,0,2.27,1.11,13.71,13.71,0,0,0,4.94,1v-9c-.41,0-.76-.05-1.11-.05-1.79,0-3.58,0-5.37,0-1.09,0-1.65-.56-1.65-1.5a1.53,1.53,0,0,1,1.69-1.59c1.2,0,2.41,0,3.61,0h2.84V26.72H19.35l-9.36,0a1.32,1.32,0,0,1-1.4-1.22,1.45,1.45,0,0,1,.95-1.71,3.36,3.36,0,0,1,1.14-.18h8.78c.35,0,.69,0,1.08,0V21c-.43,0-.81,0-1.19,0-3,0-5.92,0-8.88,0-1.19,0-1.92-.63-1.92-1.61s.74-1.6,1.92-1.61H20.54V15.29c-.37,0-.72-.06-1.06-.06-1.82,0-3.64,0-5.47,0a1.51,1.51,0,0,1-1.61-1.66,1.49,1.49,0,0,1,1.66-1.5c1.86,0,3.71,0,5.56,0,.31,0,.62,0,.9,0V3.07a18.23,18.23,0,0,0-9,3.11A18.93,18.93,0,0,0,3.81,16.72a27.63,27.63,0,0,0-.64,10,10.68,10.68,0,0,0,2.21,6.12c1.39,1.7,1.4,2.36.35,4.29C5.12,38.28,4.54,39.4,3.85,40.7Z"/><path class="cls-1" d="M25.77.19a21.5,21.5,0,0,1,10.71,2A22,22,0,0,1,47,13a24.85,24.85,0,0,1,1.93,11.7,18.48,18.48,0,0,1-1.62,7.83,8.22,8.22,0,0,1-1,1.74,1.51,1.51,0,0,0-.12,2c.91,1.61,1.73,3.27,2.56,4.92a4.51,4.51,0,0,1,.4,1.19,1.54,1.54,0,0,1-1.93,1.89c-1.73-.46-3.42-1-5.12-1.54a13,13,0,0,1-1.78-.5c-1.78-.82-3.34-.25-5,.52-3,1.44-6.22,1.65-9.55,1.61Zm19.5,40.54c-.22-.44-.39-.75-.53-1.06-.65-1.38-1.39-2.73-1.9-4.15a2.16,2.16,0,0,1,.32-1.78,12.83,12.83,0,0,0,2.93-7.48c.36-4.35.07-8.6-1.9-12.55A18.61,18.61,0,0,0,34.26,4.4a16.41,16.41,0,0,0-5.63-1.35V17.74h9.06c1.18,0,1.83.55,1.84,1.53s-.6,1.57-1.87,1.57h-9v2.79c3.1,0,6.12,0,9.14,0,1.16,0,1.94.65,1.94,1.59s-.64,1.45-1.88,1.46c-2.73,0-5.46,0-8.19,0-.83,0-1.13.16-1.12,1.06,0,4.29,0,8.58,0,12.87,0,.29,0,.57.06.9a7.2,7.2,0,0,0,.82,0,14.85,14.85,0,0,0,6.51-2.14,3.5,3.5,0,0,1,3-.39Z"/><path class="cls-1" d="M122.56,31.26a10.44,10.44,0,0,1-12.29,2.43c-3.21-1.48-4.74-4-4.49-7.35a6.33,6.33,0,0,1,2.93-4.73,17.36,17.36,0,0,1,8.17-2.77l5.48-.73a16.4,16.4,0,0,0,0-2.34,3.19,3.19,0,0,0-2-2.67C117.72,12,115,12.77,113,15.19a2,2,0,0,1-1.2.6c-1,.08-2.05,0-3.07,0s-1.5-.48-1.18-1.45A7.71,7.71,0,0,1,109,11.62a9.77,9.77,0,0,1,6.58-3.22,20.09,20.09,0,0,1,7.09.38,8.2,8.2,0,0,1,6.16,7.9c0,5.4,0,10.79,0,16.18,0,1-.37,1.33-1.35,1.33H124.3c-1.4,0-1.74-.33-1.74-1.75ZM122.44,22c-2.81.6-5.55,1.06-8.2,1.83a4.1,4.1,0,0,0-2.13,2c-.78,1.59.26,3.31,2.21,3.91a6.07,6.07,0,0,0,6.3-1.35C122.4,26.71,122.59,24.51,122.44,22Z"/><path class="cls-1" d="M179.64,23.3c-.34,3.32,1.63,7.12,5.57,6.88A5.8,5.8,0,0,0,189.37,28a2.08,2.08,0,0,1,1.83-.83c1.27,0,2.54,0,3.81,0,1.07,0,1.36.47,1,1.5a8.06,8.06,0,0,1-4.86,4.7,15.09,15.09,0,0,1-12.26,0,8.55,8.55,0,0,1-3.69-3.16A13.33,13.33,0,0,1,173,23.84c-.25-3.17-.19-6.33,1.23-9.27,1.74-3.59,4.48-5.81,8.58-6.18A15.18,15.18,0,0,1,189.7,9c4,1.5,6,4.59,6.8,8.6a29.82,29.82,0,0,1,.37,4.24c.06,1.16-.31,1.49-1.47,1.49H179.64Zm10.61-4.12c-.06-2.28-.4-4.42-2.41-5.68a5.15,5.15,0,0,0-6.1.12c-1.77,1.31-2.24,3.35-2.18,5.56Z"/><path class="cls-1" d="M84.79,23.37c-.37,3.72,2.21,6.87,5.45,6.82a5.54,5.54,0,0,0,4.21-2,2.48,2.48,0,0,1,2.25-1c1.17.07,2.35,0,3.53,0s1.46.46,1.07,1.54a7.74,7.74,0,0,1-3.83,4.13,14.83,14.83,0,0,1-12.39.94c-3.77-1.34-5.79-4.28-6.5-8.14a20.49,20.49,0,0,1,.17-9.12A10.67,10.67,0,0,1,89.39,8.25c3.16,0,6.22.29,8.67,2.56A11,11,0,0,1,101.82,18c.11,1.23.2,2.47.23,3.7s-.19,1.57-1.54,1.57H86.11C85.68,23.31,85.25,23.35,84.79,23.37Zm-.08-4.22H95.55c0-2.35-.58-4.46-2.58-5.72a5.12,5.12,0,0,0-5.8.06C85.23,14.79,84.76,16.88,84.71,19.15Z"/><path class="cls-1" d="M145.55,34.65c-4,0-7.19-.54-9.71-2.85A8.81,8.81,0,0,1,134,29.09c-.41-.82-.09-1.85,1.26-1.69a3.14,3.14,0,0,0,.75,0A6.2,6.2,0,0,1,141.05,29c2,1.69,4.5,1.71,6.91.6a2.34,2.34,0,0,0,1.37-2.25A2.18,2.18,0,0,0,148,25c-1.92-.66-3.88-1.23-5.85-1.73A13.33,13.33,0,0,1,136.8,21a6.46,6.46,0,0,1-.85-9.28,9.13,9.13,0,0,1,6.42-3.29,15.88,15.88,0,0,1,7.59.74,8.12,8.12,0,0,1,4.78,4.14c.64,1.45.19,2.13-1.37,2.14-.31,0-.62,0-.93,0A4.63,4.63,0,0,1,148.37,14a5.6,5.6,0,0,0-6.33-.74,2.43,2.43,0,0,0-1.32,2.19,2,2,0,0,0,1.18,2.15c1.76.63,3.59,1,5.38,1.61a39.2,39.2,0,0,1,4.89,1.69A6.26,6.26,0,0,1,156,27.21a6.82,6.82,0,0,1-4.43,6.21A14.53,14.53,0,0,1,145.55,34.65Z"/><path class="cls-1" d="M208.59,11.7a2.73,2.73,0,0,0,.37-.32,8.16,8.16,0,0,1,6.27-2.73c.74,0,1.49,0,2.23,0a1.1,1.1,0,0,1,1.2,1.23c0,1.11,0,2.23,0,3.34,0,.91-.42,1.27-1.33,1.28h-3.53c-3.21.05-5.08,1.92-5.09,5.12,0,4.09,0,8.18,0,12.27,0,.31,0,.62,0,.93-.05,1-.4,1.35-1.36,1.37q-1.91,0-3.81,0c-1,0-1.36-.39-1.36-1.43V10.07c0-1.08.34-1.42,1.45-1.43s2.23,0,3.34,0,1.44.43,1.47,1.48c0,.49,0,1,0,1.48C208.46,11.63,208.51,11.64,208.59,11.7Z"/><path class="cls-1" d="M161.1,21.48V10.41c0-1.48.31-1.77,1.82-1.77,1.05,0,2.11,0,3.16,0s1.42.44,1.42,1.42q0,11.34,0,22.69c0,1-.42,1.42-1.4,1.43-1.18,0-2.36,0-3.53,0s-1.45-.38-1.46-1.46V21.48Z"/></g></g></svg>