<svg xmlns="http://www.w3.org/2000/svg" viewBox="0 0 67.9 67.9"><defs><style>.cls-1{fill:#004996;}.cls-2{fill:#fff;}</style></defs><title>easy</title><g id="Capa_2" data-name="Capa 2"><g id="Capa_1-2" data-name="Capa 1"><rect class="cls-1" width="67.9" height="67.9"/><path class="cls-2" d="M34.22,54.38V27.48c.51-.11,1-.24,1.52-.32,2.49-.42,5-.85,7.48-1.22,1.31-.2,2.64-.27,4-.44a27.19,27.19,0,0,0,7.76-2.13l.38-.14c0,.46,0,.88,0,1.3,0,3.15,0,6.29,0,9.44q0,7.53-.07,15.06c0,.89.15.67-.69,1.18a17.65,17.65,0,0,1-5.27,2,41.13,41.13,0,0,1-4.3.58c-1.94.23-3.88.48-5.81.77-1.59.25-3.17.57-4.76.85ZM51.39,46.3h0l-.27.1A25.71,25.71,0,0,1,44.66,48a57,57,0,0,0-6.74,1.1c-.42.09-.84.21-1.25.31v2L38.4,51a39.35,39.35,0,0,1,5.79-1.08,30.9,30.9,0,0,0,6.1-1.19c.36-.11.71-.25,1.1-.39ZM36.67,32.79l.19,0A43.64,43.64,0,0,1,44,31.28a33.3,33.3,0,0,0,5.35-1c.67-.19,1.32-.41,2-.63V27.65l-.54.19a24.9,24.9,0,0,1-6.06,1.5,58.47,58.47,0,0,0-6.47,1c-.56.12-1.11.27-1.65.4Zm0,7.46,1.65-.44a42.8,42.8,0,0,1,6-1.12,28.82,28.82,0,0,0,5.82-1.14l1.22-.42v-2l-.34.12a25.47,25.47,0,0,1-6.42,1.59,58.28,58.28,0,0,0-6.71,1.1c-.42.09-.84.21-1.26.31Zm14.72-8.87-.38.13A26.87,26.87,0,0,1,45.36,33c-1.87.27-3.74.51-5.6.82-1,.16-2,.43-3.08.66v2.05l1.19-.32A43.08,43.08,0,0,1,44,35a30.59,30.59,0,0,0,4.84-.82c.84-.22,1.67-.49,2.53-.75Zm0,13.25V42.56l-.43.15a25.24,25.24,0,0,1-6.1,1.52,59.43,59.43,0,0,0-6.63,1.07l-1.55.37v2l1.23-.33a42.83,42.83,0,0,1,6.27-1.2,30.47,30.47,0,0,0,4.44-.74C49.54,45.19,50.44,44.9,51.39,44.63Z"/><path class="cls-2" d="M32.35,27.42v26.9l-.72-.11c-2.91-.56-5.84-1-8.79-1.35-1.37-.16-2.75-.25-4.11-.44a19.37,19.37,0,0,1-6.13-1.87c-.38-.19-.73-.42-1.1-.63a.45.45,0,0,1-.23-.45v-.16c0-3,0-5.91,0-8.86,0-3.22,0-6.43,0-9.64l0-4.8c0-.78,0-1.56,0-2.34,0-.14,0-.27,0-.45a3,3,0,0,1,.35.13,28.68,28.68,0,0,0,8.78,2.24,111.66,111.66,0,0,1,11.63,1.72Zm-8.54,10.3,0-.1.28-.35A8.85,8.85,0,0,0,25.77,34,4.09,4.09,0,0,0,24,29.37a2.49,2.49,0,0,0-.74-.34c-.46-.13-.66,0-.7.51-.05.64-.09,1.28-.16,1.92A3,3,0,0,1,21,33.93a10.89,10.89,0,0,0-1.85,1.54c-.85.83-1.65,1.71-2.47,2.58a.56.56,0,0,1-.45.23c-.61,0-1.22-.06-1.84-.07H12.9c-.09.23-.19.49-.27.74a10.75,10.75,0,0,0-.14,5.95c.13.55.18.57.75.56h2.63c.14.2.24.33.33.47A11.69,11.69,0,0,0,18.07,48a3.94,3.94,0,0,0,2.74,1.13c.34,0,.68,0,1,0a1.82,1.82,0,0,1,.83.17,4.16,4.16,0,0,0,2.2.36A1.37,1.37,0,0,0,26,49a7,7,0,0,0,.32-.82c1.15-.15,1.6-.95,1.75-2a1.89,1.89,0,0,0,1.07-2.35,2.84,2.84,0,0,0,.23-.19A1.84,1.84,0,0,0,30,42.08a2.16,2.16,0,0,0-.73-1.39,13.58,13.58,0,0,0-5.1-2.87Z"/><path class="cls-2" d="M41.22,24.34c-.85.14-1.68.26-2.49.41l-5,.95a1.35,1.35,0,0,1-.53,0c-2.56-.54-5.14-1-7.74-1.35a2.87,2.87,0,0,1-.31-.08c0-.71-.13-1.42-.13-2.14a15.55,15.55,0,0,1,1-5.4,11.26,11.26,0,0,1,3.22-4.68,7,7,0,0,1,3.95-1.73,6.85,6.85,0,0,1,5.18,1.75,9.52,9.52,0,0,1,2.89,4.68A13.26,13.26,0,0,1,41.22,24.34Zm-5.15-1.23c-2.07.41-4,.42-5.63-1.12a4.84,4.84,0,0,0,.92,1.49,2.61,2.61,0,0,0,3.22.75A3,3,0,0,0,36.07,23.11Zm0-3.54c0,.22.07.46.13.68a.77.77,0,0,0,.62.63.78.78,0,0,0,.79-.41A2.18,2.18,0,0,0,38,18.41a.73.73,0,0,0-1.34-.22A2.36,2.36,0,0,0,36.12,19.57ZM31,18.18a4.63,4.63,0,0,0-.1-.65.83.83,0,0,0-.61-.65.81.81,0,0,0-.83.42,2.15,2.15,0,0,0-.28,2,.73.73,0,0,0,1.35.23A2.13,2.13,0,0,0,31,18.18Z"/><path class="cls-2" d="M26.6,41.78l.41-.55A7.22,7.22,0,0,0,24.09,40a1.89,1.89,0,0,0-2.25,1.81,1,1,0,0,0,0,.15c-.23.16-.45.3-.64.46a1.7,1.7,0,0,0-.61,1.26,1,1,0,0,1-.18.42c-.15.3-.36.58-.48.89a1,1,0,0,0,.12.92,5.5,5.5,0,0,0-.4.63,1,1,0,0,0,.3,1.32c.25.21.52.39.85.63a2.86,2.86,0,0,1-1.27-.27,7.43,7.43,0,0,1-2.19-1.95c-.35-.44-.66-.9-1.05-1.43H13.21a9.75,9.75,0,0,1,.19-6l2.13.08a3.12,3.12,0,0,0,1.18,0c.32-.12.55-.5.81-.77l1.75-1.85a14.23,14.23,0,0,1,2.41-2,2.43,2.43,0,0,0,1.13-1.58c.15-.84.26-1.68.38-2.51,0-.12,0-.24,0-.37l.14,0a3.41,3.41,0,0,1,1.85,3.3,6.47,6.47,0,0,1-1,2.82c-.39.61-.84,1.18-1.3,1.82l.15.43c.77.26,1.49.47,2.17.77a12.79,12.79,0,0,1,2.88,1.63,5,5,0,0,1,.95,1,1.19,1.19,0,0,1-.23,1.69,2.14,2.14,0,0,1-2.08.42A19.78,19.78,0,0,1,23,42.22c-.6-.31-.61-.91,0-1.31a1.45,1.45,0,0,1,1.09-.25,6.27,6.27,0,0,1,2.11.86C26.31,41.59,26.43,41.68,26.6,41.78Z"/><path class="cls-2" d="M22.21,42.56a16.53,16.53,0,0,0,4.6,1.82,7.17,7.17,0,0,0,1.67,0,.93.93,0,0,1-.58,1.07,3.44,3.44,0,0,1-2.48.23A15.87,15.87,0,0,1,22,44.25c-.12-.07-.24-.14-.35-.22a.55.55,0,0,1-.15-.9A1.59,1.59,0,0,1,22.21,42.56Z"/><path class="cls-2" d="M21,44.47a14.54,14.54,0,0,0,4.31,1.9,4.55,4.55,0,0,0,1.17.09,5.59,5.59,0,0,0,.8-.06,1.29,1.29,0,0,1-1,1.11,3.62,3.62,0,0,1-1.82-.09A17.32,17.32,0,0,1,21.24,46l-.17-.11C20.4,45.43,20.39,45,21,44.47Z"/><path class="cls-2" d="M25.5,48.33a.82.82,0,0,1-.85.73,3,3,0,0,1-1.6-.28c-.83-.4-1.65-.84-2.45-1.31-.53-.31-.52-.64,0-1A14,14,0,0,0,25.5,48.33Z"/></g></g></svg>