<svg xmlns="http://www.w3.org/2000/svg" viewBox="0 0 39.98 51.8"><defs><style>.cls-1{fill:#004996;}</style></defs><title>question</title><g id="Capa_2" data-name="Capa 2"><g id="Capa_1-2" data-name="Capa 1"><path class="cls-1" d="M38.89,20.1a14.11,14.11,0,0,1-2.59,3.72q-1.5,1.5-4,3.61a41.66,41.66,0,0,0-3.94,3.5,7.6,7.6,0,0,0-1.83,3.21c-.34,1.32-1,2-2,2h-8.9a2,2,0,0,1-2-2,9.35,9.35,0,0,1,1.13-4.59A15.52,15.52,0,0,1,17.44,26q1.53-1.5,4.08-3.54a35.74,35.74,0,0,0,4-3.54,4.51,4.51,0,0,0,1.31-3.1,3.9,3.9,0,0,0-1.64-3.32,8.35,8.35,0,0,0-4.93-1.2,10.05,10.05,0,0,0-3.9.62,5.48,5.48,0,0,0-2.08,1.42,12.24,12.24,0,0,0-1.31,2A5.61,5.61,0,0,1,12,17a2,2,0,0,1-1.53.54H1.61a1.64,1.64,0,0,1-1.14-.43A1.56,1.56,0,0,1,0,16a13.54,13.54,0,0,1,2.59-7.3,19.68,19.68,0,0,1,7.08-6.2A21.88,21.88,0,0,1,20.28,0,25.11,25.11,0,0,1,30.2,1.93a17.22,17.22,0,0,1,7.15,5.4A12.4,12.4,0,0,1,40,15,11.31,11.31,0,0,1,38.89,20.1ZM26.05,51.22a1.9,1.9,0,0,1-1.39.58H15.47a2,2,0,0,1-2-2V42.46a1.87,1.87,0,0,1,.58-1.38,1.9,1.9,0,0,1,1.39-.59h9.19a2,2,0,0,1,2,2v7.37A1.93,1.93,0,0,1,26.05,51.22Z"/></g></g></svg>