<svg xmlns="http://www.w3.org/2000/svg" viewBox="0 0 305.22 305"><defs><style>.cls-1{fill:#ccdbea;}.cls-2{fill:#99b6d5;}</style></defs><title>avatar</title><g id="Capa_2" data-name="Capa 2"><g id="Capa_1-2" data-name="Capa 1"><rect class="cls-1" width="305.22" height="305"/><path class="cls-2" d="M149.62,94V210.72a46.11,46.11,0,0,1-16.2-1.08c-4.91-1.27-9.57-3.48-14.38-5.16a6,6,0,0,0-3.37-.23c-6.82,1.88-13.6,3.9-20.39,5.88-.49.14-1,.24-1.48.41-1.87.68-3.86.58-4.83-1.11-.8-1.38-1.33-3.56-.81-4.93,1.59-4.12,3.75-8,5.69-12a3,3,0,0,1,.29-.43c2.41-3.17,3-5.93.08-9.58-4.17-5.2-5.15-11.79-5.68-18.31-.93-11.51-.7-23,3.91-33.77,8-18.74,22-30.79,42.06-35.1C139.36,94.26,144.46,94.42,149.62,94ZM98.09,201.08c1.16-.3,1.77-.45,2.37-.63,4.75-1.37,9.49-2.77,14.25-4.12a9.36,9.36,0,0,1,8.3,1.18,29.42,29.42,0,0,0,6,2.92A36,36,0,0,0,142,203v-23.6c-1.07,0-2-.13-2.92-.13-4.7,0-9.41.05-14.11,0-2.88,0-4.35-1.47-4.36-3.94s1.63-4.12,4.46-4.18c3.16-.06,6.33,0,9.49,0H142v-6.78h-3.12l-24.64-.07a3.47,3.47,0,0,1-3.68-3.21,3.83,3.83,0,0,1,2.51-4.52,8.64,8.64,0,0,1,3-.45c7.7,0,15.4,0,23.1,0,.91,0,1.82-.07,2.83-.12v-6.74c-1.12-.05-2.13-.14-3.13-.14-7.79,0-15.57,0-23.35,0-3.14,0-5.05-1.66-5.07-4.25s2-4.21,5.06-4.22H142v-6.36c-1-.06-1.87-.16-2.78-.16-4.79,0-9.59.05-14.37,0a4,4,0,0,1-4.26-4.38c.09-2.43,1.7-3.93,4.38-4,4.88,0,9.76,0,14.63,0,.81,0,1.62-.08,2.35-.12V102.1a47.76,47.76,0,0,0-23.61,8.18A49.72,49.72,0,0,0,98,138c-2.58,8.72-2.38,17.57-1.7,26.44.44,5.85,2,11.38,5.83,16.09,3.64,4.47,3.68,6.21.9,11.29C101.44,194.72,99.91,197.67,98.09,201.08Z"/><path class="cls-2" d="M155.76,94.53c9.9-.42,19.31.88,28.17,5.31a58.07,58.07,0,0,1,27.71,28.43c4.44,9.71,5.57,20.12,5.07,30.78-.33,7.13-.93,14.14-4.26,20.61a22.14,22.14,0,0,1-2.76,4.57c-1.6,1.8-1.41,3.29-.31,5.25,2.38,4.24,4.54,8.6,6.73,12.94a12,12,0,0,1,1,3.13c.66,3.26-1.87,5.83-5.09,5-4.53-1.2-9-2.71-13.47-4.06a34.37,34.37,0,0,1-4.68-1.3c-4.67-2.16-8.79-.65-13,1.38-7.9,3.77-16.38,4.33-25.12,4.22Zm51.29,106.64c-.58-1.16-1-2-1.4-2.8-1.71-3.62-3.64-7.16-5-10.91a5.61,5.61,0,0,1,.85-4.68c4.83-5.73,7.07-12.3,7.69-19.68,1-11.44.2-22.63-5-33-5.63-11.31-14.24-19.71-26.12-24.49a43.52,43.52,0,0,0-14.83-3.54v38.63c8.1,0,16,0,23.83,0,3.11,0,4.82,1.45,4.84,4,0,2.79-1.57,4.14-4.91,4.14l-20.79,0h-3v7.33c8.15,0,16.1,0,24,0,3.08,0,5.12,1.72,5.12,4.19s-1.68,3.82-4.94,3.83c-7.18,0-14.37.08-21.55,0-2.17,0-3,.43-2.94,2.8.13,11.29.05,22.58.06,33.87,0,.74.11,1.48.17,2.34a19.36,19.36,0,0,0,2.17,0c6.08-.71,11.92-2.27,17.11-5.63a9.16,9.16,0,0,1,7.83-1C195.72,198,201.11,199.5,207.05,201.17Z"/></g></g></svg>